<svg width="48" height="48" viewBox="0 0 48 48" fill="none" xmlns="http://www.w3.org/2000/svg">
<rect width="48" height="48" rx="8" fill="#F7931E"/>
<path d="M12.4282 16.5714C12.4282 14.9146 13.7714 13.5714 15.4282 13.5714H30.8568C32.5136 13.5714 33.8568 14.9146 33.8568 16.5714V22.3529C33.8568 23.99 32.5444 25.3247 30.9076 25.3525L19.3157 25.549C18.2013 25.5678 17.1379 26.0189 16.3499 26.807L16.1759 26.9809C14.7929 28.3639 12.4282 27.3844 12.4282 25.4286V16.5714Z" stroke="white" stroke-width="2"/>
<path d="M36.5713 24.8572C36.5713 23.7526 35.6759 22.8572 34.5713 22.8572H25.4284C24.3239 22.8572 23.4284 23.7526 23.4284 24.8572V29.2747C23.4284 30.3649 24.3015 31.2543 25.3915 31.2744L32.1055 31.3983C32.6032 31.4075 33.0754 31.6203 33.412 31.987C34.5335 33.2087 36.5713 32.3728 36.5713 30.7143V24.8572Z" fill="#98570C"/>
</svg>
