<svg width="48" height="48" viewBox="0 0 48 48" fill="none" xmlns="http://www.w3.org/2000/svg">
<rect x="13" y="14" width="23" height="22" fill="white"/>
<path d="M24 4C35.0232 4 44 12.9725 44 24.0116C44 35.0275 35.0232 44 24 44C12.9768 44 4 35.0275 4 24.0116C4 12.9725 12.9768 4 24 4ZM21.722 16.0598C21.2973 16.0598 20.8919 16.1563 20.5058 16.3493C20.0232 16.6194 19.6371 17.0439 19.4247 17.5456C19.2896 17.8929 19.0772 18.9349 19.0772 18.9542C18.8649 20.0926 18.749 21.945 18.749 23.9904C18.749 25.9411 18.8649 27.7144 19.0386 28.8722C19.0579 28.8915 19.2703 30.1843 19.5019 30.6281C19.9266 31.4385 20.7568 31.9402 21.6448 31.9402H21.722C22.3012 31.9209 23.5174 31.4192 23.5174 31.3999C25.5637 30.5509 29.5985 27.9074 31.2201 26.1515L31.3359 26.0357C31.5483 25.8234 31.8185 25.4954 31.8764 25.4182C32.1853 25.013 32.3398 24.5113 32.3398 24.0116C32.3398 23.4501 32.166 22.9291 31.8378 22.5046C31.7606 22.4274 31.471 22.0994 31.2008 21.8292C29.6178 20.1312 25.4865 17.3526 23.3243 16.5036C22.9961 16.3705 22.166 16.0791 21.722 16.0598Z" fill="#ED931E"/>
</svg>
